<svg width="75" height="18" viewBox="0 0 75 18" fill="none" xmlns="http://www.w3.org/2000/svg">
<path d="M15.123 13.3682H7.49414L9.41309 15.2881L7.28125 17.4199L0 10.21H15.123V13.3682ZM15.123 7.20996H0V4.05176H7.62891L5.70996 2.13281L7.84277 0L15.123 7.20996Z" fill="white"/>
<path d="M36.5525 15.21V4.04196H43.9125V5.91396H38.6645V8.61796H43.3045V10.49H38.6645V13.338H43.9125V15.21H36.5525ZM48.3062 15.21C47.6022 15.21 47.0636 15.0286 46.6902 14.666C46.3276 14.2926 46.1462 13.7646 46.1462 13.082V8.48996H44.9142V6.85796H45.5542C45.8636 6.85796 46.0716 6.78863 46.1782 6.64996C46.2956 6.50063 46.3542 6.28196 46.3542 5.99396V4.56996H48.1942V6.85796H49.9062V8.48996H48.1942V13.578H49.7782V15.21H48.3062ZM51.3626 15.21V6.85796H53.4106V8.58596H53.4906C53.5439 8.36196 53.6239 8.14863 53.7306 7.94596C53.8479 7.73263 53.9973 7.54596 54.1786 7.38596C54.3599 7.22596 54.5733 7.09796 54.8186 7.00196C55.0746 6.90596 55.3679 6.85796 55.6986 6.85796H56.1466V8.79396H55.5066C54.8133 8.79396 54.2906 8.89529 53.9386 9.09796C53.5866 9.30063 53.4106 9.63129 53.4106 10.09V15.21H51.3626ZM63.296 15.21C62.848 15.21 62.4906 15.082 62.224 14.826C61.968 14.5593 61.808 14.2073 61.744 13.77H61.648C61.5093 14.314 61.2266 14.7246 60.8 15.002C60.3733 15.2686 59.8453 15.402 59.216 15.402C58.3626 15.402 57.7066 15.178 57.248 14.73C56.7893 14.282 56.56 13.6846 56.56 12.938C56.56 12.074 56.8693 11.434 57.488 11.018C58.1066 10.5913 58.9866 10.378 60.128 10.378H61.552V9.76996C61.552 9.30063 61.4293 8.93796 61.184 8.68196C60.9386 8.42596 60.544 8.29796 60 8.29796C59.52 8.29796 59.1306 8.40463 58.832 8.61796C58.544 8.82063 58.2986 9.06596 58.096 9.35396L56.88 8.26596C57.1893 7.78596 57.6 7.40196 58.112 7.11396C58.624 6.81529 59.3013 6.66596 60.144 6.66596C61.2746 6.66596 62.1333 6.92196 62.72 7.43396C63.3066 7.94596 63.6 8.68196 63.6 9.64196V13.578H64.432V15.21H63.296ZM59.904 13.914C60.3626 13.914 60.752 13.8126 61.072 13.61C61.392 13.4073 61.552 13.1086 61.552 12.714V11.61H60.24C59.1733 11.61 58.64 11.9513 58.64 12.634V12.906C58.64 13.2473 58.7466 13.5033 58.96 13.674C59.184 13.834 59.4986 13.914 59.904 13.914ZM65.7695 15.21V6.85796H67.8175V8.24996H67.8975C68.0681 7.80196 68.3348 7.42863 68.6975 7.12996C69.0708 6.82063 69.5828 6.66596 70.2335 6.66596C71.0975 6.66596 71.7588 6.94863 72.2175 7.51396C72.6761 8.07929 72.9055 8.88463 72.9055 9.92996V15.21H70.8575V10.138C70.8575 9.54063 70.7508 9.09263 70.5375 8.79396C70.3241 8.49529 69.9721 8.34596 69.4815 8.34596C69.2681 8.34596 69.0601 8.37796 68.8575 8.44196C68.6655 8.49529 68.4895 8.58063 68.3295 8.69796C68.1801 8.80463 68.0575 8.94329 67.9615 9.11396C67.8655 9.27396 67.8175 9.46596 67.8175 9.68996V15.21H65.7695Z" fill="white"/>
</svg>
